<?xml version="1.0" standalone="no"?><!DOCTYPE svg PUBLIC "-//W3C//DTD SVG 1.1//EN" "http://www.w3.org/Graphics/SVG/1.1/DTD/svg11.dtd"><svg t="1578968575087" class="icon" viewBox="0 0 1024 1024" version="1.1" xmlns="http://www.w3.org/2000/svg" p-id="1913" xmlns:xlink="http://www.w3.org/1999/xlink" width="48" height="48"><defs><style type="text/css"></style></defs><path d="M839.234783 207.026087h-22.26087c-193.669565 0-278.26087-84.591304-280.486956-84.591304l-20.034783-20.034783-20.034783 20.034783S411.826087 207.026087 215.930435 207.026087H166.956522v380.66087c0 100.173913 35.617391 244.869565 338.365217 356.173913l8.904348 4.452173 8.904348-4.452173c302.747826-111.304348 338.365217-256 338.365217-356.173913V204.8l-22.260869 2.226087zM489.73913 683.408696l-175.860869-155.826087 46.747826-37.843479 93.495652 69.008696s129.113043-133.565217 251.547826-195.895652l17.808696 20.034783S567.652174 512 489.73913 683.408696z m0 0" fill="#727272" p-id="1914"></path></svg>